<svg xmlns="http://www.w3.org/2000/svg" width="375" viewBox="0 0 375 375" height="375" version="1.0"><defs><clipPath id="a"><path d="M 50.152344 38 L 324.652344 38 L 324.652344 331 L 50.152344 331 Z M 50.152344 38"/></clipPath></defs><path fill="#FFF" d="M-37.5 -37.5H412.5V412.5H-37.5z"/><path fill="#FFF" d="M-37.5 -37.5H412.5V412.5H-37.5z"/><path fill="#F8F8F8" d="M-37.5 -37.5H412.5V412.5H-37.5z"/><path fill="#FFDE59" d="M 319.773438 175.066406 C 319.773438 102.207031 260.582031 43.011719 187.402344 43.011719 C 114.226562 43.011719 55.03125 102.207031 55.03125 175.066406 C 55.03125 223.53125 81.375 265.816406 120.40625 288.910156 L 125.609375 205.316406 C 119.429688 203.367188 98.289062 196.535156 98.289062 170.511719 L 98.289062 123.351562 C 98.289062 116.519531 103.816406 110.988281 110.648438 110.988281 C 117.476562 110.988281 123.007812 116.519531 123.007812 123.351562 C 123.007812 116.519531 128.535156 110.988281 135.367188 110.988281 C 142.195312 110.988281 147.722656 116.519531 147.722656 123.351562 C 147.722656 116.519531 153.253906 110.988281 160.082031 110.988281 C 166.914062 110.988281 172.441406 116.519531 172.441406 123.351562 L 172.441406 170.839844 C 172.441406 196.535156 151.300781 203.367188 145.121094 205.316406 L 150.976562 301.921875 C 162.683594 305.171875 175.042969 307.125 187.730469 307.125 C 199.761719 307.125 211.472656 305.5 222.527344 302.570312 L 228.382812 208.246094 C 211.472656 202.714844 199.113281 183.523438 199.113281 160.429688 C 199.113281 133.109375 216.675781 110.988281 238.140625 110.988281 C 259.605469 110.988281 277.167969 133.109375 277.167969 160.429688 C 277.167969 183.523438 264.808594 202.714844 247.898438 208.246094 L 252.449219 289.886719 C 292.78125 267.441406 319.773438 224.183594 319.773438 175.066406 Z M 319.773438 175.066406" fill-rule="evenodd"/><path fill="#FFF" d="M 276.84375 160.429688 C 276.84375 133.109375 259.28125 110.988281 237.816406 110.988281 C 216.347656 110.988281 198.785156 133.109375 198.785156 160.429688 C 198.785156 183.523438 211.144531 202.714844 228.058594 208.246094 L 222.203125 302.570312 L 221.878906 310.050781 C 221.554688 316.230469 225.128906 321.4375 230.335938 324.363281 L 245.296875 324.363281 C 250.5 321.761719 254.078125 316.230469 253.75 310.050781 L 252.449219 289.886719 L 247.570312 208.246094 C 264.484375 202.714844 276.84375 183.523438 276.84375 160.429688 Z M 276.84375 160.429688" fill-rule="evenodd"/><path fill="#FFF" d="M 144.796875 205.316406 C 150.976562 203.367188 172.117188 196.535156 172.117188 170.839844 L 172.117188 123.351562 C 172.117188 116.519531 166.589844 110.988281 159.757812 110.988281 C 152.929688 110.988281 147.398438 116.519531 147.398438 123.351562 C 147.398438 116.519531 141.871094 110.988281 135.039062 110.988281 C 128.210938 110.988281 122.679688 116.519531 122.679688 123.351562 C 122.679688 116.519531 117.152344 110.988281 110.320312 110.988281 C 103.492188 110.988281 97.964844 116.519531 97.964844 123.351562 L 97.964844 170.511719 C 97.964844 196.535156 119.105469 203.367188 125.28125 205.316406 L 120.078125 288.910156 L 119.105469 310.050781 C 118.777344 316.230469 122.355469 321.4375 127.558594 324.363281 L 142.519531 324.363281 C 147.722656 321.761719 151.300781 316.230469 150.976562 310.050781 L 150.328125 301.921875 Z M 144.796875 205.316406" fill-rule="evenodd"/><g clip-path="url(#a)"><path fill="#737373" d="M 324.652344 175.066406 C 324.652344 99.605469 263.183594 38.132812 187.402344 38.132812 C 111.625 38.132812 50.152344 99.605469 50.152344 175.066406 C 50.152344 222.230469 75.195312 266.464844 115.199219 291.511719 L 114.226562 309.726562 C 113.898438 314.929688 115.851562 320.136719 119.429688 324.039062 C 123.332031 328.265625 129.1875 330.867188 135.039062 330.867188 C 140.894531 330.867188 146.75 328.265625 150.652344 324.039062 C 154.554688 320.136719 156.179688 314.929688 155.855469 309.726562 L 155.855469 308.425781 C 166.261719 310.703125 176.671875 312.003906 187.402344 312.003906 C 197.484375 312.003906 207.242188 311.027344 217 308.75 L 217 309.726562 C 216.675781 314.929688 218.625 320.136719 222.203125 324.039062 C 226.105469 328.265625 231.960938 330.867188 237.816406 330.867188 C 243.667969 330.867188 249.199219 328.265625 253.425781 324.039062 C 257.328125 320.136719 258.957031 314.929688 258.628906 309.726562 L 257.65625 292.8125 C 298.960938 268.09375 324.652344 223.207031 324.652344 175.066406 Z M 143.496094 317.535156 C 141.21875 319.808594 138.292969 321.109375 135.039062 321.109375 C 131.789062 321.109375 128.859375 319.808594 126.585938 317.535156 C 124.632812 315.582031 123.65625 312.980469 123.980469 310.378906 L 130.488281 205.96875 C 130.488281 203.691406 129.1875 201.738281 126.910156 200.761719 C 116.828125 197.511719 103.167969 190.679688 103.167969 170.511719 L 103.167969 123.351562 C 103.167969 119.121094 106.417969 115.871094 110.648438 115.871094 C 114.875 115.871094 118.128906 119.121094 118.128906 123.351562 L 118.128906 170.511719 C 118.128906 173.117188 120.40625 175.394531 123.007812 175.394531 C 125.609375 175.394531 127.886719 173.117188 127.886719 170.511719 L 127.886719 123.351562 C 127.886719 119.121094 131.136719 115.871094 135.367188 115.871094 C 139.59375 115.871094 142.847656 119.121094 142.847656 123.351562 L 142.847656 170.511719 C 142.847656 173.117188 145.121094 175.394531 147.722656 175.394531 C 150.328125 175.394531 152.601562 173.117188 152.601562 170.511719 L 152.601562 123.351562 C 152.601562 119.121094 155.855469 115.871094 160.082031 115.871094 C 164.3125 115.871094 167.5625 119.121094 167.5625 123.351562 L 167.5625 170.839844 C 167.5625 190.355469 153.902344 197.183594 143.496094 200.761719 C 141.21875 201.414062 139.917969 203.367188 140.242188 205.640625 L 146.75 310.050781 C 146.421875 312.980469 145.449219 315.257812 143.496094 317.535156 Z M 246.269531 317.535156 C 243.996094 319.808594 241.066406 321.109375 237.816406 321.109375 C 234.5625 321.109375 231.636719 319.808594 229.359375 317.535156 C 227.40625 315.582031 226.433594 312.980469 226.757812 310.378906 L 232.9375 208.570312 C 232.9375 206.292969 231.636719 204.339844 229.683594 203.691406 C 214.398438 198.8125 203.992188 180.921875 203.992188 160.429688 C 203.992188 136.035156 219.277344 115.871094 238.140625 115.871094 C 257.003906 115.871094 272.289062 135.710938 272.289062 160.429688 C 272.289062 180.921875 261.558594 198.488281 246.597656 203.691406 C 244.320312 204.339844 243.019531 206.292969 243.34375 208.570312 L 249.523438 310.378906 C 249.199219 312.980469 248.222656 315.257812 246.269531 317.535156 Z M 257.003906 281.429688 L 252.777344 211.496094 C 270.011719 203.691406 281.722656 183.523438 281.722656 160.429688 C 281.722656 130.507812 261.882812 106.109375 237.816406 106.109375 C 213.421875 106.109375 193.90625 130.507812 193.90625 160.429688 C 193.90625 183.523438 205.617188 204.015625 222.855469 211.496094 L 217.652344 298.34375 C 197.484375 303.222656 175.695312 303.222656 155.53125 298.015625 L 150 208.894531 C 167.890625 201.738281 177.320312 189.054688 177.320312 171.164062 L 177.320312 123.351562 C 177.320312 113.917969 169.515625 106.109375 160.082031 106.109375 C 155.203125 106.109375 150.976562 108.0625 147.722656 111.316406 C 144.472656 108.0625 140.242188 106.109375 135.367188 106.109375 C 130.488281 106.109375 126.257812 108.0625 123.007812 111.316406 C 119.753906 108.0625 115.527344 106.109375 110.648438 106.109375 C 101.214844 106.109375 93.410156 113.917969 93.410156 123.351562 L 93.410156 170.511719 C 93.410156 188.726562 102.515625 201.738281 120.730469 208.894531 L 116.175781 280.453125 C 81.375 256.707031 59.910156 217.027344 59.910156 175.066406 C 59.910156 105.136719 117.152344 47.890625 187.402344 47.890625 C 257.65625 47.890625 314.894531 104.808594 314.894531 175.066406 C 314.894531 218.003906 292.78125 258.011719 257.003906 281.429688 Z M 257.003906 281.429688"/></g></svg>